<?xml version="1.0" encoding="utf-8"?>
<!-- Generator: Adobe Illustrator 28.0.0, SVG Export Plug-In . SVG Version: 6.00 Build 0)  -->
<svg version="1.1" id="Layer_1" xmlns="http://www.w3.org/2000/svg" xmlns:xlink="http://www.w3.org/1999/xlink" x="0px" y="0px"
	 viewBox="0 0 846.5 612" style="enable-background:new 0 0 846.5 612;" xml:space="preserve">
<style type="text/css">
	.st0{fill:#00263E;stroke:#FFFFFF;stroke-width:1.18;}
	.st1{fill:#00A9E0;stroke:#FFFFFF;stroke-width:1.18;}
	.st2{fill:#00263E;}
	.st3{fill:#FFFFFF;}
</style>
<path class="st0" d="M625.9,197.4l-0.2-3.1l0.9-3.2l1.2-1.6l-0.2-1.9l0.3-1.5l1.4-1.8l3.2-0.4l0-9.5l-1.6-2.5l-2.1-8.5l-5.3-7.4
	l-6.1,2.8l-0.4,0.5l-1.2,4.3l-3.2,2.3l-1.8-0.4l-0.8-1.1l1.4-5.1l3.2-3.4l0.8-2.6l1.3-1.9l0.4-1.6l-2.1-7.9l-1-1.6l-0.4-2l0.6-1.2
	l0.4-0.2l-2-3.2l-1.9-1.4l-4-1l-1.7-1.1l-1.2-0.3l-3.5-2.2l-1.5-0.4l-1.6,0.5l-0.7-0.5l-3-0.5l-2.8,0.6l-1.2,1.8l0.7,2.8l1.3,1.4
	l-0.4,0.8l-5.5,2.5l0,6.4l-1.1,0.5l-0.8,1.7l-0.4-0.8l-0.7-3.4c0,0,0-1.4-0.8-1.3c-0.7,0.1-0.9,0.5-1.2,0.8
	c-0.3,0.3-1.2,1.8-1.2,1.8s-2.9,1.6-3.2,2.4c-0.3,0.8,0.1,1.8-0.3,2.4c-0.4,0.6-1,0.7-1.2,1.8c-0.2,1.1-0.1,7.5-0.1,7.5
	s0.1,0.4-0.1,0.9c-0.2,0.6-0.4,0.4-0.8,1.4c-0.4,1-1.9,7.1-1.1,10.6c0.8,3.5,4.2,7.7,5,10.6c0.8,2.9,0.7,3.8,0,9.2
	c-0.7,5.4-3.8,13.6-3.8,13.6s-0.3,1.2-0.6,1.7c-0.3,0.6-0.4,1.2-1.2,1.9c-0.3,0.3-1,1-1,1l30.2-2.7l0.1,0.7l20.3-2L625.9,197.4
	L625.9,197.4z"/>
<polygon class="st0" points="563.8,128.9 565.7,127.8 567.4,126.2 567.7,131 569,130.7 573,125.6 580.3,123.4 581.8,121.1 
	584.8,120.2 591.5,122.1 592.6,123.4 594.7,123.1 594.7,121.3 595.2,120.2 596.6,120.8 597.8,122 603.9,120.1 604,119.9 
	603.7,119.2 602.3,118.6 601.6,117.7 599.9,116.9 599.4,114.1 598.7,112.9 598.4,111.8 597.7,111 597.3,111 592.2,112 587.9,110.8 
	587.6,108.2 586.9,106.8 584.7,107 582.4,108.5 572.7,109.8 568.3,112.4 566.8,114.5 565.5,115.1 559.4,114.4 557.1,115 
	552.3,110.2 547.6,108 543.8,109 542.5,108.7 540.7,110.8 540.6,106.8 541.6,105.1 543.3,104.2 549.1,97.3 549.1,96.1 545.8,96.3 
	529,109.3 522.3,111.5 517.6,115.2 514.2,115.3 514.4,116 515.6,116 516.8,116.7 518.4,120 539.2,125.4 540.8,124.8 546.6,126.3 
	547.1,127.3 546.7,128.8 549.8,129.4 551.3,130.8 551,131.4 551.6,132.6 551.1,133.1 551.5,134.5 550.7,135.6 550.7,137.2 
	553.5,136.6 553.9,137.2 553,140.6 555,142.1 555,142.1 555.8,142.1 563,128.8 "/>
<polyline class="st0" points="754,318.2 754.8,318.6 759.6,314 758.8,313.6 754,318.2 "/>
<path class="st0" d="M555.7,163.5c0.3-1.6,1.9-9.2,2.1-10.1c0.5-2.1,4.7-12.5,4.7-12.5l-0.6-1.8l-3,4.1l-0.5,4.4l-2.1,0.2l-5.5,5.9
	l-0.1-1.3l2.1-5.5l1.6-1.6l1.5-3.1H555l0-0.1l-2-1.5l0.9-3.4l-0.4-0.7l-2.8,0.6l0-1.5l0.8-1.2l-0.5-1.4l0.5-0.5l-0.6-1.2l0.3-0.6
	l-1.5-1.4l-3.1-0.6l0.4-1.5l-0.5-1l-5.8-1.4l-1.6,0.6l-20.8-5.4l-1.6-3.2l-1.5-1l-0.9,0.3l-0.2-0.7l-5-0.3l-1,1.1l-0.3-0.6l0.6-2.8
	l-0.2-2.3l-1.6-1.4l-9,6.1l-3.1,0.8l-2.1-0.2l-1.1-1.6l-1.3-1l-0.6,1.7l-1.1,0l0.3,11.5l-0.9,1.2l-4.6,2.4l-1.3,2.8l-1.3,1.3
	l-0.1,2.5l2,0.4l1.4,2.6l-1.4,2.7l0.2,3.5l-0.7,0.9l0.7,2.8l-0.8,3.5l1.3,1.7l3.1,1.1l1.6,2.1l2.4-0.3l2.3,1.1l2.9,3.1l1.1,2.5
	l6.7,4.5l1.4,2.7l0.8,5.5l3.1,15.2l5.2,1.5l1,1.9l-0.1,1.6l41-2.4c0,0-2.1-10.9-2.3-14.9C553.2,176.6,554.9,168.2,555.7,163.5
	L555.7,163.5z"/>
<polyline class="st0" points="760,312.4 760.6,312.6 763.3,311.3 762.9,303.3 757.5,295.7 757.1,296.2 762.2,303.5 762.5,310.4 
	760,312.4 "/>
<polyline class="st0" points="805.9,175.5 807.3,176.4 808.2,175.1 810.8,174.4 811.6,174.8 811,172.7 810.1,173.2 808.9,172.3 
	807.5,173 807.2,175 805.9,175.5 "/>
<polyline class="st0" points="814.7,174.7 816.8,175.3 818.5,174.9 818.7,173.4 817.2,171.7 817.4,173.1 817,173.8 815,173.9 
	814.7,174.7 "/>
<polyline class="st0" points="764.8,171.8 764.4,171.9 764.9,157.4 792.6,150.7 797.2,146.3 798.6,146.2 802.8,150.9 801.6,151.9 
	801.3,154.3 800.5,154.9 800.1,156.1 800.3,157.5 800.7,157.9 803.4,158.4 804.8,159.4 806,162.2 807.3,162.7 809.2,165.4 
	814.8,166 816.6,165 816.8,163.9 815.9,160.8 816.6,160.6 817.1,161 818.5,164.5 818.2,165.2 815.7,167.9 814.1,168.1 811.2,170.1 
	809.8,170.3 808.7,168.6 807.7,168.7 804.6,171.9 802.6,172.8 801.6,173 800.6,170.6 796.5,169 796.2,167.2 795.5,167.2 
	794.7,164.5 775.3,169.3 775,170.3 774.4,169.6 764.8,171.8 "/>
<polyline class="st0" points="607,306.3 630,303.8 638.5,301.3 639.4,299.1 642.3,297.7 642.4,296 644.3,294.6 644.3,292.9 
	654.6,283.2 654.6,283.3 651.9,283.1 651,281.9 649.2,281.1 648.6,279.4 645.5,276.5 645.6,275.5 642.5,272.4 643.4,270.5 
	642.7,267.2 642.7,267.2 640.6,265 638.5,264.4 637.1,261.3 635.2,262.1 633.6,264.3 631.4,265 627.8,263.2 626.3,264 625.9,265 
	624.4,264.8 622.2,262.7 616.9,262.3 615.1,258.6 612.7,256.9 610.2,258 608.3,256.8 606.1,258.7 607.2,260.2 606.6,261.7 608,262 
	607.8,264 605.2,264.3 602.4,266.4 600.7,265.5 598.2,266.1 599,269.8 596.3,271.9 595.5,275 593.2,275.6 592.2,277.6 592.2,280.4 
	590.4,282.1 586.8,280.6 586.4,279 585,278 585.7,279.2 583.7,279.5 584.2,280.6 583,281.4 583.2,283.4 582.1,283.9 581.5,285.3 
	581.1,284.2 579.7,284.5 578.2,282.7 575.4,284.5 574.1,287.2 569.4,284.5 567,285.2 566.5,284 566.7,286.4 565.8,287.1 
	565.2,285.5 563.4,286.3 562,285.3 561.3,285.8 561.9,287.5 561.1,288.4 559.7,287.8 558.2,290.9 559.6,294.4 553.5,296.7 
	553.2,298.9 554.7,301.4 553.2,303.2 545.7,300.5 543.1,303.7 544,305.8 544.1,309.7 542.5,313.9 540.4,312.9 539.4,315.4 
	561.6,313.9 560.8,310.2 564.3,310.2 564.6,310.9 584.6,309.3 585.3,308.4 607,306.3 "/>
<polyline class="st1" points="740.2,286.4 661.8,299.6 661.3,302.6 661.8,303.4 661.1,305.2 661.8,306.3 660.3,306.2 658.9,307.5 
	656.8,311.9 654.6,311 653.3,311.7 649.5,315.7 648.1,313.9 646.1,315.3 645.7,316.8 644.1,316.6 644.2,318 643.1,320.1 
	640.5,320.9 635.7,325.3 631.7,325.9 629.5,327.1 627.7,329.2 627,332.5 624.5,332.7 623.7,333.6 623.7,337.9 643.3,335.5 
	648.3,333.4 648.8,333.8 649.8,332.4 653.6,331 654.1,330 675.7,328.4 676.2,330.2 677.7,328.8 680.5,331.6 680.9,334.4 
	698.8,331.5 720.1,347.3 726.6,344.9 731.7,341.3 731.9,339.5 734.8,333.7 741.7,327.9 747.7,326.4 751.6,322.7 751.8,320.9 
	751.3,318.8 748.7,318.8 747.4,319.7 747.2,320.4 747,319.7 746.8,318 747.9,316.5 748.2,315.1 749.3,313.6 748,312.6 743.1,311.5 
	746.7,310.9 748.3,308.9 749.3,310.7 750.5,310.5 751.6,311.7 754.5,311 756,309.8 758,305.7 759.4,304.3 758.1,300 756.5,298.3 
	755.5,300.2 754.7,303.5 754.4,303.6 753.6,302.5 752.5,298.9 745.7,301.5 743.8,301.5 742.1,295 742.6,294.2 744.2,298 
	745.4,298.6 746.9,298.3 750.5,295 751.7,294.9 751.6,293.7 753.5,294.1 755.1,293.8 756.5,295.8 756.5,295.5 755.6,293.5 
	754.2,292 753.2,289.5 752.5,288.8 752.5,283.9 740.2,286.4 "/>
<polyline class="st0" points="564.4,435.6 567.1,435.8 568.2,435 570.2,424.6 572.2,434.6 571.5,436.8 572,437.7 581.2,434.7 
	580.6,431.6 581.1,429.1 577,425.4 577,422.5 621.1,418.5 619.2,415.2 619.1,404.2 617.7,400.8 617.9,396.3 620.3,393.2 
	618.4,392.1 618.8,390.3 616,386.2 602.7,340.1 561.4,343.6 563.2,345.7 564.4,435.6 "/>
<polyline class="st0" points="514.8,316.4 457.6,317.7 460.2,374.9 461.5,376.6 464.8,375.9 467.2,376.6 467.3,387.5 515.3,386.1 
	515.1,384 516.1,382.9 515.8,381.1 514.5,380.2 515.2,376.9 513.5,375.4 514.7,374.9 514.8,374 513.4,372.9 516,370.6 516.5,367.6 
	515.5,366.7 518.8,365.3 518.9,364.3 517.5,363.4 519,362.3 519.5,360.7 520.4,360.7 520.4,358.9 523.3,357.7 522.9,353.6 
	523.4,351.5 525,351.3 524.9,349.8 528,347.6 527.2,345.6 528.8,344.9 529.2,343.4 530.6,343.2 530,338.9 531.5,335.5 533,335.2 
	532.3,333.8 533.2,333 532.3,331.2 535.5,329.4 535.8,328.7 534.9,327.9 536.7,327.5 535.5,325.6 525.1,326.1 529.8,320.2 
	529.8,318.3 528,315.8 514.8,316.4 "/>
<polyline class="st0" points="442.2,247.4 345.5,243.5 341,303.7 457.6,307.8 457.4,264.9 454.1,263.8 453,260.5 449.8,257.1 
	452,253.4 453.4,253.2 452.3,250.2 449.9,250.8 445.2,247.4 442.2,247.4 "/>
<polyline class="st0" points="435.1,178.1 505.8,177.1 508.9,192.3 514.2,193.9 515.1,195.7 515.1,197.4 518.1,199.5 518.8,201.5 
	522.3,204 522.9,206.5 522.2,210 520.6,211.5 520.1,214.8 515.4,217.6 510.1,218.8 509.3,222.3 511.5,224.7 511.8,227.4 
	509.8,230.2 509.2,233.5 505.3,235.7 506,239 504.5,239.8 500.3,235.2 440,236 439.9,234.8 438.4,233.4 439.2,230.4 438.6,227.1 
	438.8,224.4 437.7,223.9 438.5,221.9 437.3,221.3 437.8,218.9 436.7,218.4 436.6,217.1 435.4,217.2 435.2,214.3 435.9,212.1 
	434.5,210.1 434.7,208.4 433.1,207.2 433,205.8 431.8,204.4 432,202.4 430.9,200.7 431.1,198 429.8,197.8 429.9,196.8 429,195.5 
	429.3,195 427.6,193.2 429.7,188 429.6,188 430.5,185.6 430.1,183.7 428.8,183.5 429,183 428.6,182.3 429.3,182.1 429.4,180.6 
	428.5,179.3 428.4,178 435.1,178.1 "/>
<polyline class="st0" points="256.8,399 256,395.5 316.4,401.8 323.9,312.5 324.7,312.6 325.6,302.5 308.4,300.8 231.1,291.4 
	214.4,402.9 227.9,404.9 229.3,395.6 256.8,399 "/>
<polyline class="st0" points="45.4,314.6 44.8,314.1 47.6,314.1 48.5,315.6 48.6,316.6 48,316.8 46.8,316.5 45.4,314.6 46.8,316.5 
	45.4,314.6 "/>
<polyline class="st0" points="51.1,314.1 53.2,316.3 56.1,316.5 55.9,317.2 54.8,317.1 52.5,317.6 51.3,316.4 51.1,314.1 "/>
<polyline class="st0" points="70.1,332.2 69.3,332.2 70,332.4 70.5,333.5 71.7,334 71.7,335.3 71.5,335.6 70.8,335.4 70.8,333.9 
	70.2,333.2 70.1,332.2 "/>
<polyline class="st0" points="66.3,339.6 66.8,339.4 66.6,339.9 67.6,342.8 68.6,343.4 69.5,345.2 67.8,345.1 66.4,341 66.3,339.6 
	"/>
<polyline class="st0" points="124.4,297.5 72.8,217.8 88.3,160 30.5,143 29.5,155.3 25,166.2 19.9,170.6 18.8,174.4 20.1,176.4 
	23.3,189.1 23.2,190.6 22.2,192 20.6,205.7 26.2,218.3 26.4,220.6 25.6,222.9 26,224.1 27.5,226.5 29.1,227.2 29.3,228.1 
	30.2,228.7 31.3,228.3 31.7,227.7 33.1,223.8 36.8,225.1 39.9,227.4 37.7,228 35.9,227.9 34.1,229.1 34,231 35.3,236.6 35.1,238.2 
	32.3,233.4 32.2,231.7 31.1,231.1 30.1,233.1 29.8,244.3 31.5,247.7 34.9,249.4 35.7,252.5 34.8,255.8 32.5,256.9 31.7,260.6 
	41.1,282.3 42.6,283.7 41.9,286.9 43.9,288.8 44.8,291.2 44.8,291.9 43.7,293.8 42.7,300.6 43.1,301.9 49.9,305.4 52.9,308.2 
	54.5,307.7 56.3,308.5 60.9,312.5 61.7,314.6 67.1,319 67.9,320.4 69.3,318.8 70.5,319.1 73.3,322.7 73.2,325.9 73.4,326.5 
	77.3,328 86.8,341.9 87.8,345.1 87.1,355.3 124.4,360.5 126.2,358.9 128.6,359.7 130.5,357.3 130.8,355.3 127.5,352.3 128.5,349.8 
	127.9,348 128.3,346 129.8,346 132.2,343.6 132.7,341.2 133.5,340.6 133.9,335.8 135.7,334.9 136.6,333.3 141.6,330.9 140.5,327 
	138.6,325 136.1,317.5 136.4,315.3 124.4,297.5 "/>
<polyline class="st0" points="312.1,141.1 226.8,129.4 225.1,139.3 223.3,137.1 222.4,134.1 221.6,133.4 220.1,134.1 220.1,135 
	219.1,136 219.5,137.3 216.7,136.4 214.7,136.9 213.9,135.9 210.9,136 208.8,134.9 207.4,135.3 206.4,136.8 202.5,135 201.3,135.2 
	200.1,136.1 200.2,137.1 199.8,137.3 197.8,135.1 198.2,133.6 197.4,132.1 197.9,131.2 197,128.5 195.8,127.4 194.4,127.7 
	193.3,126 192.9,124.6 193.6,124 193.9,123 193.4,120.8 192.6,120.6 192.3,118.8 191.1,116.5 191.4,115.1 190.9,114 191.4,112.7 
	190.7,112.1 191.1,110.6 188.9,108.2 188.6,109.1 186.8,110.4 185.1,110.7 183.7,111.7 182.1,109.7 180.8,109.3 182.1,106.7 
	181.5,105.1 184.3,103.5 184,102.6 184.4,101.5 183.5,101.1 184.3,99 183.8,97.9 184.9,97.6 184.8,95.9 186.7,92.6 186.6,91.5 
	187.5,91.1 188.2,88.6 184.7,88.4 184,87.6 184.5,86.8 183.9,86 182.5,86.4 182.8,85.3 181.1,83.6 181.3,82 179.8,80.4 177.3,74.4 
	175.1,73.1 174.4,71.2 172.7,69.8 174.1,69.1 173,67.4 174.1,66.6 173.9,64.6 170.8,58.1 175,39.3 200.8,44.8 253.6,54.5 
	332.1,64.6 324.7,142.4 312.1,141.1 "/>
<polygon class="st1" points="754.9,212.3 750.4,208.4 749.1,208.2 748.1,205.8 746.5,205.9 745.8,203.6 745.9,203.6 745.7,202.1 
	746.6,201.3 747.1,199.4 745.5,197.4 747.4,195.2 748.7,190.9 750.2,188.7 749.3,187.6 745.6,187.2 743.8,185 743.3,181.7 
	742.6,181.6 742.8,180.9 740.1,180.6 739.5,179 737.5,178.5 674.4,190.2 673.5,184.6 671.9,186.3 672,187.5 669.5,188.2 
	665.5,191.9 663.5,192.5 670.4,236.9 686,234.4 741,224.3 742.7,221.4 744.5,220.9 746.5,221.7 747.2,220.7 750.2,219.2 
	750.5,218.6 750,217.8 "/>
<polyline class="st0" points="544.1,439.6 534.6,437 530.7,438.5 529.9,441.9 532.6,443.9 535.7,443.6 538,441.7 539.3,441.5 
	540,441.6 541,445.1 542.2,445.3 544,443.6 547.6,441.8 548.3,441.9 549,442.5 548.5,447 545,449.9 543.8,452.4 543.8,453.2 
	546.3,456.1 551.6,458.3 553.1,460.2 552.7,461.7 549.2,463.4 545.7,459.2 542,457.8 539.6,455.8 537.9,455.9 537.4,456.3 
	537.7,457.5 537.3,458.5 535.2,461.3 530.5,460.7 528.9,461.6 527.2,460.6 524.7,462 522,461.3 521,460.4 517.4,460.4 513.7,455.2 
	511.7,454.9 509.6,452.7 504.5,450.4 501.5,450.4 500.6,451.4 500.8,453.2 498.8,455.1 480.9,451.2 471.3,452.9 469.6,450.9 
	471.3,449.3 472.2,447.1 473.4,445.8 473.8,444.2 473.5,441.4 472.8,440.2 473.7,438.1 473.1,436.1 475.9,430.8 475.7,429.3 
	476.4,428.4 475.7,427.1 476.7,426.5 475.9,425.4 476.3,423.5 475.7,423.4 475.8,423.4 475.2,423.3 473.8,420.9 474.3,419.9 
	472.6,417.8 473,417 471.2,415.5 471.5,413.3 471,411.6 467.5,407.5 467.3,387.5 515.3,386.1 515,387 516.6,387.9 515.3,391.1 
	516.8,392.3 515.3,393.4 516.5,395.2 516.5,397 520,399.6 518,403.5 516.8,403.5 517.2,406 512.8,409.8 511.8,414.8 510.1,416.2 
	510.8,418.3 510.4,420.4 508.2,421.2 509.7,425 508.3,426.6 508.4,426.4 541,425 539.4,431.5 540.3,433.6 542.5,435.5 544.1,439.6 
	"/>
<polyline class="st0" points="776.1,154.9 774.1,152.8 774.8,149.7 773.2,139.1 775.4,129.9 774.7,123.1 777,121.7 779.8,117.5 
	779.9,115.9 778,113.2 779,109.9 778,108.3 753.3,114.2 754,115.9 753.7,117.1 754.5,118.3 754.7,121.6 756.6,124.5 756.4,126.3 
	757.2,128.4 756.5,129.6 756.3,132.6 758.8,138.4 758.4,140.6 759,141.9 760.1,140.5 761.4,141.9 764,156 764.9,157.6 776.1,154.9 
	"/>
<polyline class="st1" points="745.8,226.6 750.3,230.2 752.7,230.4 754.7,231.7 757.5,231.2 758.2,234.9 758.8,235.7 764.3,223.3 
	764.1,222.2 765.3,221.2 765.7,220.3 765.5,214.8 765.8,214 766.4,214.1 766.9,213.7 767,208 766.3,206.8 764.5,205.3 762.4,204.7 
	762,204.2 761.7,203.1 762.3,200.6 762.9,199.6 763.6,193.6 750.2,188.7 748.7,190.9 747.4,195.2 745.5,197.4 747.1,199.4 
	746.6,201.3 745.7,202.1 745.9,203.6 745.8,203.6 746.5,205.9 748.1,205.8 749.1,208.2 750.4,208.4 754.9,212.3 750,217.8 
	750.5,218.6 750.2,219.2 747.2,220.7 745.8,222.6 744.8,225.5 745.8,226.6 "/>
<polyline class="st0" points="791.6,179.9 797.2,176.7 798.3,175.4 798.8,170.9 799.2,170.1 796.5,169 796.2,167.2 795.5,167.2 
	794.7,164.5 788.9,166 791.8,177.9 791.4,178.4 791.6,179.9 "/>
<polyline class="st0" points="687.4,389.4 686.9,387.9 687.2,387.2 689.7,385.3 691.2,385 691.9,383.5 689.2,380 689,379.2 
	689.2,378.6 698.6,377.2 700,376.5 705.8,369.7 706.5,369.6 707.7,368.4 708,366.2 710.6,364.8 712.1,363 712.6,361 711.7,359.4 
	713.2,357.7 716.2,351.4 719.8,348.8 720.1,347.3 698.8,331.5 680.9,334.4 680.5,331.6 677.7,328.8 676.2,330.2 675.7,328.4 
	654.1,330 653.6,331 649.8,332.4 648.8,333.8 648.3,333.4 643.3,335.5 643.4,335.5 643.1,337.4 641.5,338.6 639.9,342.1 
	645.8,345.9 648.2,345.8 649.5,348 649.5,348 651.4,351.5 654.1,354.2 654.1,354.2 654.8,355.4 659.4,357.8 661.3,360.5 
	661.4,360.5 666.3,363.6 666.5,365.7 668.1,366.5 668.3,367.7 669.7,368.4 669.9,369.3 674.7,371.6 674.7,372.7 677,376.6 
	677.3,379.1 680.3,380.5 682.6,384.2 683.1,388 687.4,389.4 "/>
<polyline class="st0" points="749.4,258.2 750.8,258.5 750.7,260.2 749.6,260.9 747.8,269.1 749.5,274.3 750.2,274.9 751.6,274.5 
	752.4,273.5 756.3,255.4 749.4,258.2 "/>
<polyline class="st0" points="104.1,21.1 162.5,36.4 150.4,86.2 151.3,90.5 150.2,91.8 150.9,93.8 122.5,86.9 121,87.6 114.4,86.2 
	112.9,87.2 108.9,86.8 104.8,87.5 101.3,87.2 99.6,85.8 91.7,86.4 90.2,83.9 83.6,81.9 80.6,82.9 76.3,83 70.7,79.4 71.6,73.2 
	71.2,71.1 65.7,64.2 60.5,62.8 59.2,61 60.6,55.8 61.3,56.9 60.6,59.5 61.3,59.8 61.9,59.2 63.2,54.7 63.1,54 62.1,54 61.4,53.5 
	61.2,52.7 61.7,51 62.9,49.9 63.7,48.6 63.2,47.2 61.7,48.3 61.4,48 62,32.3 60.4,27.2 60.5,25.3 61.3,23.1 62.8,21.3 64.1,20.4 
	72.1,27 80.4,30 83.2,32.5 85.9,32.9 86.1,35 85.1,36.9 84.5,37.5 83.2,37.8 78.8,42.5 78,45.2 79.8,45.7 80.6,44.2 79.9,43.8 
	80.9,42.9 83.6,41.7 86.6,38.8 88,38.7 88.6,39.1 88.9,40.9 89.1,41.1 91.5,34.4 91.3,29.5 89.4,27 89.4,26.7 90.5,26.5 91.9,25.4 
	92.7,23.3 93.5,23.2 94.2,24 94.6,23.8 94.1,22.6 92.3,21.4 90.6,20.9 89.8,19 89.6,16.9 104.1,21.1 "/>
<polyline class="st1" points="740.2,286.4 661.8,299.6 630,303.8 638.5,301.3 639.4,299.1 642.3,297.7 642.4,296 644.3,294.6 
	644.3,292.9 654.6,283.2 654.6,283.3 655,283.8 654.5,284.6 655.4,285.2 655.7,286.5 657.3,287.9 660.8,289.1 663.9,287.3 
	664.5,285.9 667.1,287.5 671.8,285.2 672.3,284.6 671.8,283.6 672.2,283 674,283.6 677.1,281.4 678.3,282 680.8,279.8 680.2,278.9 
	681.3,277.5 680.1,276.5 683.7,269.4 684.2,266 685.8,263.9 685.6,262.9 686.8,260.4 687,257.1 688.7,257.4 689.5,259 693.1,259.5 
	696.1,250.4 698.2,251.4 699.6,248.1 700.4,248.3 701.6,247 703.7,242.9 704,236.7 712.6,241.5 713.3,237.6 716.3,237.7 
	717.9,238.7 717.5,240.7 718.7,241.8 721.4,241.9 722.4,243.1 724.1,243.4 725.1,244 725.1,244 725.7,244.8 726.1,247.3 725,248 
	724.9,250.2 723.9,251 723.4,252.9 723.7,253.7 724.3,254.4 729.2,255.9 732.4,257.9 739.2,259.1 741.1,260.8 741.7,262.6 
	741.5,266.2 740.5,266.7 741.4,269.2 742.9,269.8 744.4,272 743.4,272.1 742.3,272.9 742.5,274 743.3,275.6 744.9,276.1 
	745.5,277.2 744.4,278 741.7,278.6 741.7,280.1 743.4,280.9 745.1,281.1 745.6,280.2 746.3,280 751.4,280.1 752.5,283.9 
	740.2,286.4 "/>
<polyline class="st0" points="491,235.5 440,236 440,237.3 441.1,237.7 441.6,241.9 444.4,243.3 444.2,244.2 445.4,245.9 
	445.2,247.4 449.9,250.8 452.3,250.2 453.4,253.2 452,253.4 449.8,257.1 453,260.5 454.1,263.8 457.4,264.9 457.6,317.7 528,315.8 
	529.8,318.3 529.8,320.2 525.1,326.1 535.5,325.6 537.3,322.8 535.8,320.7 537.8,320.4 536.8,319 538.3,317.9 537.4,314.6 
	538.4,314.3 539,316.4 540.4,312.9 542.5,313.9 544.1,309.7 544,305.8 542.8,305.5 541.5,303.5 540.9,303.9 541.5,305.4 
	539.7,304.4 538.2,300.6 537.4,300.2 538.5,297.2 536.9,294.4 536.8,291.9 530.3,286.8 528.5,286.6 523.3,281.9 523,279.3 
	525.5,273.6 525.2,271.8 526.2,270 526.3,269.4 524,267.8 521.4,267.1 519.7,268.8 518.6,268.7 517.4,267.1 515.7,260.7 
	511.8,257.9 510.8,256.2 506.4,252.6 504,244.8 504.5,239.8 500.3,235.2 491,235.5 "/>
<polyline class="st0" points="419.2,69.6 367.3,67.5 332.1,64.6 326.5,123.9 423.9,129.5 429.9,129.6 429.4,122.1 427.8,119.8 
	426.8,115.6 427.4,110.3 426.9,110.1 426.4,96.9 422.9,85.8 422.8,78.2 423.6,76 421.9,70 421.8,69.7 419.2,69.6 "/>
<polyline class="st0" points="124.4,297.5 72.8,217.8 88.3,160 130.8,170.7 173.5,180.1 150.4,293.7 148.7,296.2 147.7,296.6 
	146.4,296.1 145.3,293.7 143.8,293.7 142.4,292.8 139.8,294.7 138.8,296.2 139.5,297.9 138.4,300.7 137.9,312.4 136.9,312.6 
	136.4,315.3 124.4,297.5 "/>
<polyline class="st0" points="312.1,141.1 226.8,129.4 213.4,207.9 242.8,212.6 317.2,221.6 324.7,142.4 312.1,141.1 "/>
<polyline class="st0" points="788.6,118.8 783,101.2 784.9,99.8 787.7,100.3 787.3,98.6 787.5,98.4 789.6,98.6 789.6,98 788.7,96.7 
	788.7,95.4 790.3,92 790.5,91.3 789.7,67.2 793.3,54.9 794.7,53.5 796,53.3 798.2,54.3 800,56.5 803.3,56.7 807.1,54.6 808.1,51.5 
	809.8,51.1 817.8,55.3 825.5,81 829.5,81.7 831.4,86.7 832.5,87.7 834.9,88.4 837.2,88.2 838.3,87.7 838.3,86.9 840.1,90.8 
	839.5,92.4 839.6,92.9 841.2,92.8 841.9,93.8 842,95.2 840.8,96.8 838.9,97.6 838.3,98.5 836.6,99.2 836,100.5 832.3,102.3 
	832,104.1 830.6,105.2 829.5,105.6 827.9,107.8 827.6,109.1 826.7,109.8 823.8,108.7 822.7,109.6 821.4,109.6 820.5,108.4 
	819.8,106.7 819.3,106.7 818.6,107.2 817.5,108.6 817.7,111.3 817.3,113.2 817.6,115.1 817,117.6 816.6,118 814.8,118 814,119.1 
	813.5,121.2 812.6,121.8 811.9,122.1 810.8,121.1 810.3,121.3 810.3,124 809.7,125.3 809.2,125.2 807.8,123.6 806.9,123.6 
	805,125.2 803.7,127.7 803.8,130.8 801.3,137.6 798.3,141.7 797.1,140.9 796.7,139.1 793.7,136.8 788.6,118.8 "/>
<polyline class="st0" points="787.6,183.8 783.1,189 770.6,193.6 766.5,196.6 766,198.1 764.8,198.9 764.9,200.9 765.2,201.2 
	765.2,200.3 766.2,199.8 766.6,200.7 767.8,200.8 792.2,185.7 789,186.1 787,187.6 786,189.1 784.4,189.9 784.5,189 787.1,185.2 
	787.6,183.8 "/>
<polyline class="st0" points="716.8,521.6 715.8,521.3 713.2,526.2 713.8,527 716.8,521.6 "/>
<polyline class="st0" points="711.7,528 708.7,530 709,530.6 711.7,529 711.7,528 "/>
<polyline class="st0" points="701.1,534.3 698.5,534.5 695,536.7 692.5,537.3 692.9,536 695.7,534.9 698.8,532.3 701,532.6 
	701.1,534.3 "/>
<polyline class="st0" points="818.4,115.2 819.4,116.4 820.7,116.2 820.7,115.2 819.8,114.6 819.3,112.9 818.4,113.2 818.4,115.2 
	"/>
<polyline class="st0" points="820.8,113.1 821.9,113.2 822,112.2 821.6,111 820.7,111.1 820.3,112.2 820.8,113.1 "/>
<polyline class="st0" points="822.3,115 822.6,116.1 823.4,116.3 823.5,114.6 822.7,113.8 822.3,115 "/>
<polyline class="st0" points="642.7,267.2 646.7,266.1 647,263.3 648.4,262.5 647.4,259.3 649.4,254.4 651.1,254.5 651.6,256.6 
	652.8,255.1 653.8,255.4 652.6,252.5 653.6,252 653.3,250.5 654.1,248.6 655.8,248 657.2,245.1 658.8,246.2 660.7,244.9 
	665.3,239.7 665.6,237.6 664.9,236.8 665.8,234.8 665.5,233.7 666.2,233.5 666,230.1 667.3,225.4 666.7,223.8 666.9,222.4 
	665.4,220.2 665.9,219.4 667.5,218.7 667.5,218.7 670.4,236.9 686,234.4 687.5,244.7 690.2,242.2 692.4,238.5 693.2,238 
	694.6,238.4 696.5,235.8 696.8,234.2 697.5,234.6 697.4,235.5 700.1,236 701.8,235.6 702.3,235 701.8,234.6 702.4,234.2 702,233.7 
	704.2,233.2 705.4,231.6 708.6,232.9 710.8,232.4 711,233.1 710.4,233.5 710.9,234.3 711.4,233.8 711.5,234.6 712.3,234.4 
	711.9,235.5 713,235.9 713.3,237.6 712.6,241.5 704,236.7 703.7,242.9 701.6,247 700.4,248.3 699.6,248.1 698.2,251.4 696.1,250.4 
	693.1,259.5 689.5,259 688.7,257.4 687,257.1 686.8,260.4 685.6,262.9 685.8,263.9 684.2,266 683.7,269.4 680.1,276.5 681.3,277.5 
	680.2,278.9 680.8,279.8 678.3,282 677.1,281.4 674,283.6 672.2,283 671.8,283.6 672.3,284.6 671.8,285.2 667.1,287.5 664.5,285.9 
	663.9,287.3 660.8,289.1 657.3,287.9 655.7,286.5 655.4,285.2 654.5,284.6 655,283.8 654.6,283.3 651.9,283.1 651,281.9 
	649.2,281.1 648.6,279.4 645.5,276.5 645.6,275.5 642.5,272.4 643.4,270.5 642.7,267.2 642.7,267.2 "/>
<polyline class="st0" points="661.8,299.6 630,303.8 585.3,308.4 584.6,309.3 564.6,310.9 564.3,310.2 560.8,310.2 561.6,313.9 
	539.4,315.4 539,316.4 538.4,314.3 537.4,314.6 538.3,317.9 536.8,319 537.8,320.4 535.8,320.7 537.3,322.8 535.5,325.6 
	536.7,327.5 534.9,327.9 535.8,328.7 535.5,329.4 532.3,331.2 533.2,333 532.3,333.8 533,335.2 531.5,335.5 530,338.9 530.6,343.2 
	529.2,343.4 528.8,344.9 527.2,345.6 561.4,343.6 602.7,340.1 623.7,337.9 623.7,333.6 624.5,332.7 627,332.5 627.7,329.2 
	629.5,327.1 631.7,325.9 635.7,325.3 640.5,320.9 643.1,320.1 644.2,318 644.1,316.6 645.7,316.8 646.1,315.3 648.1,313.9 
	649.5,315.7 653.3,311.7 654.6,311 656.8,311.9 658.9,307.5 660.3,306.2 661.8,306.3 661.1,305.2 661.8,303.4 661.3,302.6 
	661.8,299.6 "/>
<polyline class="st1" points="581.2,434.7 583.6,431.9 585.3,431.5 586.8,430.1 587.2,430.1 587.3,430.9 586.6,433.2 599,430.5 
	600.4,430.9 600.4,432 599.4,432.5 599.7,433 613.8,438.7 617.3,443 618.7,443.9 627.4,441.2 631.5,438.5 633.4,438.2 633.7,438 
	633.7,436.3 635.3,435 639.7,434.5 642.8,435.3 648.8,440.4 650.5,441 651,444 652.7,444.6 656.4,448.2 662.5,450.4 663.5,451.5 
	666.4,475.7 666.7,476 668.1,475.9 668,472.9 669.4,473.2 670.9,474.2 669.9,481.3 670.8,484.7 678.2,493.4 678.8,493.6 
	681.1,492.4 682.6,497.8 684.1,497.1 684.5,497.3 683.8,498.9 683.6,500.1 687,503.8 690,509.7 691.9,511.2 694.7,511 696.8,512.4 
	701.1,518.9 701.5,523 701.9,523.6 703.4,524.5 710.7,522.5 714.5,520 717.2,520.8 718.3,518.2 716.6,517.2 718.4,503.7 
	715.9,486.8 703.1,464.8 701.8,456.6 691.9,444.5 680.4,418.6 680.9,416.7 672.9,415.8 671.8,417.6 672.8,420.8 672.8,424.7 
	670.7,425.2 669.8,424.2 669,421.4 624,423.9 622.3,421.9 621.1,418.5 577,422.5 577,425.4 581.1,429.1 580.6,431.6 581.2,434.7 "/>
<polyline class="st0" points="741,224.3 742.7,221.4 744.5,220.9 746.5,221.7 745.8,222.6 744.8,225.5 745.8,226.6 745.7,228.6 
	758,244.9 757.4,246.7 747.2,248.8 741,224.3 "/>
<polyline class="st0" points="88.3,160 30.5,143 32.3,125.2 35.7,118.8 37.9,116.8 39.8,116.2 40.1,114.2 39.7,114 54.3,79 
	55.9,77.2 56.5,74.4 57.4,73.2 56.9,72.2 59.3,65.7 60.3,65.4 65.1,66.4 67.6,68.1 68.2,67.4 71.2,71.1 71.6,73.2 70.7,79.4 
	76.3,83 80.6,82.9 83.6,81.9 90.2,83.9 91.7,86.4 99.6,85.8 101.3,87.2 104.8,87.5 108.9,86.8 112.9,87.2 114.4,86.2 121,87.6 
	122.5,86.9 150.9,93.8 151.9,97.5 154.4,99.5 155,102.8 151.2,107 149.5,110.4 147.1,112.8 146.7,114.7 145.4,116.4 143.3,117.6 
	139.5,122.1 139,125.8 141.7,126.9 142.6,129.1 141,130.4 141.3,132 139.2,135.3 130.9,170.7 88.3,160 "/>
<polyline class="st0" points="182.7,181.9 216.8,188.2 213.4,207.9 242.8,212.6 231.1,291.4 165.4,280.2 153.6,277.8 173.5,180.1 
	182.7,181.9 "/>
<polyline class="st0" points="395.5,186.9 321,181.9 317.2,221.6 346.9,224.2 345.5,243.5 445.2,247.4 445.4,245.9 444.2,244.2 
	444.4,243.3 441.6,241.9 441.1,237.7 440,237.3 439.9,234.8 438.4,233.4 439.2,230.4 438.6,227.1 438.8,224.4 437.7,223.9 
	438.5,221.9 437.3,221.3 437.8,218.9 436.7,218.4 436.6,217.1 435.4,217.2 435.2,214.3 435.9,212.1 434.5,210.1 434.7,208.4 
	433.1,207.2 433,205.8 431.8,204.4 432,202.4 430.9,200.7 431.1,198 427.8,197.4 426.7,194.5 420.5,192.1 418.8,190.3 410.1,190.2 
	408.9,191.8 407.8,191.9 402.5,189 400.9,187.2 400.9,187.3 395.5,186.9 "/>
<polygon class="st0" points="798.3,141.7 797.1,140.9 796.7,139.1 793.7,136.8 788.6,118.8 783,101.2 782.3,101.8 779.5,102.8 
	778.8,104.1 778.2,108.3 779,109.7 778,113 779.9,115.8 779.8,117.3 777,121.5 774.7,122.9 775.4,129.7 773.2,138.9 774.8,149.5 
	774.1,152.6 776.1,154.8 792.6,150.7 797.2,146.3 798.3,146.2 798.3,142 "/>
<polyline class="st0" points="333.4,313.3 372.2,315.9 370.2,354.4 372.2,354.6 376,358.4 377.4,357.8 379.6,358.6 380.6,357 
	383,359.5 383.4,362.1 386.6,362.1 390.3,363.8 392.7,363.5 394.8,365.5 396.6,364.1 400.8,364.1 401,366.5 403.1,367.3 
	402.9,369.2 404.3,369.9 408.2,367.5 409,367.9 409.2,369.3 410.9,369.4 411.6,370.9 415.5,369.4 415.3,371.5 416.4,372.9 
	417.8,371.1 417.4,370.3 422.2,369 423.8,370.6 428.3,371.9 429.8,373.7 430.2,372.4 431.8,372.5 432.7,371.2 436.1,369.8 
	438.7,370.7 438.8,369.9 441.8,368.9 442.7,370.2 445.9,370.5 447.8,368.5 451.9,370.6 453.5,372.7 460.2,374.9 457.6,307.8 
	341,303.7 325.6,302.5 324.7,312.6 333.4,313.3 "/>
<polygon class="st0" points="764.5,195.6 766.1,195.3 767,192.2 765.5,190.7 768.4,187.7 767,186.1 764.8,171.8 764.4,171.9 
	764.9,157.4 764,155.8 761.4,141.7 760.1,140.3 759,141.8 758.4,140.5 758.8,138.3 756.3,132.5 756.5,129.5 757.2,128.3 
	756.4,126.1 756.6,124.3 754.7,121.5 754.5,118.1 753.7,116.9 754,115.8 753.3,114 730.6,119.1 723,127.4 721.5,133.7 717,138.3 
	716.2,139.6 716.8,140.9 718.7,140.5 719.6,141.3 719.7,142.4 718.9,143.2 717.9,143.2 717.8,143.9 718.1,144.7 719.6,146.1 
	720.6,148.4 720.5,150.2 716.3,151.9 712.7,156 710.5,157.2 705.4,158.3 704.4,158.2 701.8,159.7 699.3,158.3 693.6,158.4 
	681,163.7 684.8,171.4 682,175 681.3,176.7 680.4,177.5 679.5,177.8 673.5,184.6 674.4,190.2 737.5,178.5 739.5,179 740.1,180.6 
	742.8,180.9 742.6,181.6 743.3,181.7 743.8,185 745.6,187.2 749.3,187.6 750.2,188.7 763.6,193.6 763,199.5 "/>
<polygon class="st0" points="516.8,92.7 522.2,87.5 521,87.5 517.4,86.1 511.2,86.2 506.9,84.9 504.6,85.1 501.6,86.8 499.9,87.1 
	497,85.8 494.9,83.5 492,82.8 490.1,81.4 486.7,80.1 485.4,78.5 480.6,76.4 474.4,76 472.4,77.2 470,77.5 468.1,76.9 468.1,76.6 
	467.5,76.1 463.2,74.6 459.8,75 459.5,74.6 457.5,74.8 455.3,69.8 454.9,69.4 452,61.8 449.3,61.5 449.3,70 421.9,69.6 423.6,76 
	422.8,78.2 422.9,85.8 426.4,96.9 426.9,110.1 427.4,110.3 426.8,115.6 427.8,119.8 429.4,122.1 429.8,129.7 429.5,131.7 
	428.4,133.5 425.9,135.3 425.5,136.5 427.8,140.1 430,140.9 431.1,142.4 430.6,178.1 505.8,177.1 505,171.6 503.6,169 497,164.5 
	495.9,161.9 492.9,158.9 490.7,157.7 488.3,158 486.7,155.9 483.6,154.8 482.3,153 483,149.6 482.3,146.8 483,145.9 482.8,142.4 
	484.2,139.7 482.8,137.1 480.8,136.6 480.9,134.1 482.2,132.8 483.4,130 488,127.6 488.9,126.5 488.6,115 489.7,115 490.3,113.3 
	491.3,114.1 512.2,94.7 "/>
<polyline class="st0" points="767,192.3 775.4,187.2 776.2,185.2 777.9,183.8 781.8,183.7 791.6,179.9 791.4,178.4 791.8,177.9 
	788.9,166 775.3,169.3 775,170.3 774.4,169.6 764.8,171.8 767,186.1 768.4,187.7 765.5,190.7 767,192.3 "/>
<polyline class="st1" points="741,224.3 686,234.4 686,234.4 687.5,244.7 690.2,242.2 692.4,238.5 693.2,238 694.6,238.4 
	696.5,235.8 696.8,234.2 697.5,234.6 697.4,235.5 700.1,236 701.8,235.6 702.3,235 701.8,234.6 702.4,234.2 702,233.7 704.2,233.2 
	705.4,231.6 708.6,232.9 710.8,232.4 711,233.1 710.4,233.5 710.9,234.3 711.4,233.8 711.5,234.6 712.3,234.4 711.9,235.5 
	713,235.9 713.3,237.6 716.3,237.7 717.9,238.7 717.5,240.7 718.7,241.8 721.4,241.9 722.4,243.1 724.1,243.4 725.1,244 
	725.7,244.8 725.9,245.9 726.1,247.3 725,248 724.9,250.2 725.1,251 724.6,253 725.4,253.5 727.5,253.6 730.9,254.7 732.5,254.3 
	733.8,255.2 735.8,255.4 737.6,256.7 739.7,257.2 737.7,253 735.3,251.5 736.7,251.1 736.7,250.8 734.8,246 734,238.5 732.8,236.4 
	737.7,231.3 739,227.8 739.6,227.7 740.4,228.2 740.7,228.8 740.5,230.5 740,231.6 738.8,232.6 738,234.3 738.3,235.8 739.1,237.2 
	739.2,238.4 737.6,241 738.2,241.7 739.8,241.4 740.2,241.9 741.3,246 740.2,247.2 739.7,248.3 739.8,249.8 740.5,251.4 
	742.7,253.1 745,252.7 746.2,253.1 748.1,255.8 748.7,257.7 749.4,258.2 756.3,255.4 755.6,252.9 757.3,249.2 757.4,246.7 
	747.2,248.8 741,224.3 741,224.3 "/>
<polyline class="st0" points="680.9,416.7 680.3,411.8 686.5,389.8 687.4,389.4 683.1,388 682.6,384.2 680.3,380.5 677.3,379.1 
	677,376.6 674.7,372.7 674.7,371.6 669.9,369.3 669.7,368.4 668.3,367.7 668.1,366.5 666.5,365.7 666.3,363.6 661.4,360.5 
	661.3,360.5 659.4,357.8 654.8,355.4 654.1,354.2 654.1,354.2 651.4,351.5 649.5,348 649.5,348 648.2,345.8 645.8,345.9 
	639.9,342.1 641.5,338.6 643.1,337.4 643.4,335.5 602.7,340.1 616,386.2 618.8,390.3 618.4,392.1 620.3,393.2 617.9,396.3 
	617.7,400.8 619.1,404.2 619.2,415.2 622.3,421.8 624,423.9 669,421.4 669.8,424.2 670.7,425.2 672.8,424.7 672.8,420.8 
	671.8,417.6 672.9,415.8 680.9,416.7 "/>
<polyline class="st0" points="165.3,280.1 231.1,291.4 214.4,402.9 182.7,397.9 124.4,362.4 124.4,360.5 126.2,358.9 128.6,359.7 
	130.5,357.3 130.8,355.3 127.5,352.3 128.5,349.8 127.9,348 128.3,346 129.8,346 132.2,343.6 132.7,341.2 133.5,340.6 133.9,335.8 
	135.7,334.9 136.6,333.3 141.6,330.9 140.5,327 138.6,325 136.1,317.5 136.9,312.6 137.9,312.4 138.4,300.7 139.5,297.9 
	138.8,296.2 139.8,294.7 142.4,292.8 143.8,293.7 145.3,293.7 146.4,296.1 147.7,296.6 148.7,296.2 150.4,293.7 153.6,277.8 
	165.3,280.1 "/>
<polyline class="st0" points="564.4,435.6 554,435.6 550.5,438 547.9,437.4 544.1,439.6 542.5,435.5 540.3,433.6 539.4,431.5 
	541,425 508.4,426.4 508.3,426.6 509.7,425 508.2,421.2 510.4,420.4 510.8,418.3 510.1,416.2 511.8,414.8 512.8,409.8 517.2,406 
	516.8,403.5 518,403.5 520,399.6 516.5,397 516.5,395.2 515.3,393.4 516.8,392.3 515.3,391.1 516.6,387.9 515,387 515.3,386.1 
	515.1,384 516.1,382.9 515.8,381.1 514.5,380.2 515.2,376.9 513.5,375.4 514.7,374.9 514.8,374 513.4,372.9 516,370.6 516.5,367.6 
	515.5,366.7 518.8,365.3 518.9,364.3 517.5,363.4 519,362.3 519.5,360.7 520.4,360.7 520.4,358.9 523.3,357.7 522.9,353.6 
	523.4,351.5 525,351.3 524.9,349.8 528,347.6 527.2,345.6 561.4,343.6 563.2,345.7 564.4,435.6 "/>
<polyline class="st0" points="424,129.6 326.5,123.9 321,181.9 400.9,187.3 400.9,187.2 402.5,189 407.8,191.9 408.9,191.8 
	410.1,190.2 418.8,190.3 420.5,192.1 426.7,194.5 427.8,197.4 429.8,197.8 429.9,196.8 429,195.5 429.3,195 427.6,193.2 429.7,188 
	429.6,188 430.5,185.6 430.1,183.7 428.8,183.5 429,183 428.6,182.3 429.3,182.1 429.4,180.6 428.5,179.3 428.4,178 430.6,178.1 
	431.1,142.4 430,140.9 427.8,140.1 425.5,136.5 425.9,135.3 428.4,133.5 429.5,131.7 429.9,129.6 424,129.6 "/>
<polyline class="st0" points="139.9,172.9 173.5,180.1 216.8,188.2 225.1,139.3 223.3,137.1 222.4,134.1 221.6,133.4 220.1,134.1 
	220.1,135 219.1,136 219.5,137.3 216.7,136.4 214.7,136.9 213.9,135.9 210.9,136 208.8,134.9 207.4,135.3 206.4,136.8 202.5,135 
	201.3,135.2 200.1,136.1 200.2,137.1 199.8,137.3 197.8,135.1 198.2,133.6 197.4,132.1 197.9,131.2 197,128.5 195.8,127.4 
	194.4,127.7 193.3,126 192.9,124.6 193.6,124 193.9,123 193.4,120.8 192.6,120.6 192.3,118.8 191.1,116.5 191.4,115.1 190.9,114 
	191.4,112.7 190.7,112.1 191.1,110.6 188.9,108.2 188.6,109.1 186.8,110.4 185.1,110.7 183.7,111.7 182.1,109.7 180.8,109.3 
	182.1,106.7 181.5,105.1 184.3,103.5 184,102.6 184.4,101.5 183.5,101.1 184.3,99 183.8,97.9 184.9,97.6 184.8,95.9 186.7,92.6 
	186.6,91.5 187.5,91.1 188.2,88.6 184.7,88.4 184,87.6 184.5,86.8 183.9,86 182.5,86.4 182.8,85.3 181.1,83.6 181.3,82 179.8,80.4 
	177.3,74.4 175.1,73.1 174.4,71.2 172.7,69.8 174.1,69.1 173,67.4 174.1,66.6 173.9,64.6 170.8,58.1 175,39.3 162.5,36.4 
	150.4,86.2 151.3,90.5 150.2,91.8 151.9,97.5 154.4,99.5 155,102.8 151.2,107 149.5,110.4 147.1,112.8 146.7,114.7 145.4,116.4 
	143.3,117.6 139.5,122.1 139,125.8 141.7,126.9 142.6,129.1 141,130.4 141.3,132 139.2,135.3 130.9,170.7 139.9,172.9 "/>
<polyline class="st0" points="308.4,300.8 231.1,291.4 242.8,212.6 317.3,221.7 346.9,224.2 341,303.7 308.4,300.8 "/>
<polygon class="st0" points="256.8,399 260.9,402 262.6,406.2 266.3,408.4 268.5,412.5 282.3,425.8 285.1,441.8 289,448.1 
	301.6,459.5 308.7,461.4 318.5,446.3 322.1,445.3 325.5,446.4 339.5,447 351.8,461.4 357.1,476.4 362,482.2 364.6,488.3 
	369.9,492.3 374,507.9 379.2,516.3 384.5,520.1 389.2,520.8 393.9,523.7 402.7,524.6 408.8,527.7 414.4,528.3 414.7,527.6 
	413.3,526.5 411.4,520.6 411,520 409,508.5 410.5,507.5 410.6,503.7 410.2,503.2 408.2,502.6 407.3,502 407.7,500.9 410.1,500.8 
	411,501.8 412.5,500.8 413.3,494.2 411.6,491 416.2,490.3 418,487.1 417.7,486.3 415.9,486.8 416,485.3 419.2,483.5 420.3,483.7 
	422.2,481.6 422.5,480.5 423.2,479.7 426.4,479.5 427.6,478.9 427.8,477.4 426,475.9 426,474.4 426.5,473.5 428.1,474.2 
	429.1,475.1 429.4,474.9 429.4,473.6 429.8,472.9 430.5,473.2 431.4,474.7 431.9,474.8 432.9,474.3 433.4,472.9 433.9,472.5 
	434.5,475.3 439.6,473.7 440.3,473.8 440,474.4 432.9,477.5 432.3,478.3 432.9,478.6 449.5,469.4 452.2,463 452.6,452.8 
	453.5,451.9 454.5,451.4 455.3,451.4 455.5,455.1 457.8,455.2 457.2,456.5 455.2,457.4 455.9,457.7 465.8,453.1 471.3,452.9 
	469.6,450.9 471.3,449.3 472.2,447.1 473.4,445.8 473.8,444.2 473.5,441.4 472.8,440.2 473.7,438.1 473.1,436.1 475.9,430.8 
	475.7,429.3 476.4,428.4 475.7,427.1 476.7,426.5 475.9,425.4 476.3,423.5 475.7,423.4 475.8,423.4 475.2,423.3 473.8,420.9 
	474.3,419.9 472.6,417.8 473,417 471.2,415.5 471.5,413.3 471,411.6 467.5,407.5 467.2,376.6 464.8,375.9 461.5,376.6 460.2,374.9 
	453.5,372.7 451.9,370.6 447.8,368.5 445.9,370.5 442.7,370.2 441.8,368.9 438.8,369.9 438.7,370.7 436.1,369.8 432.7,371.2 
	431.8,372.5 430.2,372.4 429.8,373.7 428.3,371.9 423.8,370.6 422.2,369 417.4,370.3 417.8,371.1 416.4,372.9 415.3,371.5 
	415.5,369.4 411.6,370.9 410.9,369.4 409.2,369.3 409,367.9 408.2,367.5 404.3,369.9 402.9,369.2 403.1,367.3 401,366.5 
	400.8,364.1 396.6,364.1 394.8,365.5 392.7,363.5 390.3,363.8 386.6,362.1 383.4,362.1 383,359.5 380.6,357 379.6,358.6 
	377.4,357.8 376,358.4 372.2,354.6 370.2,354.4 372.2,315.9 323.9,312.5 316.4,401.8 256,395.5 "/>
<polygon class="st0" points="659.7,193.7 646.4,203.9 642.1,204.5 637.3,206.8 632.2,206.7 631.4,205.9 629.4,206.2 628.1,206 
	626,204.5 621.8,203.5 601.6,205.9 607.2,257.7 608.3,256.8 610.2,258 612.7,256.9 615.1,258.6 616.9,262.3 622.2,262.7 
	624.4,264.8 625.9,265 626.3,264 627.8,263.2 631.4,265 633.6,264.3 635.2,262.1 637.1,261.3 638.5,264.4 640.6,265 642.7,267.2 
	646.7,266.1 647,263.3 648.4,262.5 647.4,259.3 649.4,254.4 651.1,254.5 651.6,256.6 652.8,255.1 653.8,255.4 652.6,252.5 
	653.6,252 653.3,250.5 654.1,248.6 655.8,248 657.2,245.1 658.8,246.2 660.7,244.9 665.3,239.7 665.6,237.6 664.9,236.8 
	665.8,234.8 665.5,233.7 666.2,233.5 666,230.1 667.3,225.4 666.7,223.8 666.9,222.4 665.4,220.2 665.9,219.4 667.5,218.7 
	667.5,218.7 663.5,192.5 "/>
<polyline class="st0" points="419.2,487.6 419.6,487.6 420.1,486.1 422.7,483.9 423.5,483.9 424.9,483.1 425.9,481.8 427,481.2 
	427.4,481.7 427.2,483 417.9,492.6 417.1,492.8 416.7,492 419.2,488.4 419.2,487.6 "/>
<g>
	<path class="st2" d="M542.8,305.5l-3.1-4.7l1.8,4.6l-1.9-1l-1.5-3.8l-0.9-0.5l1.1-2.9l-1.5-2.9l-0.1-2.4l-6.5-5.1l-1.8-0.3
		l-5.2-4.7l-0.4-2.6l2.6-5.7l-0.3-1.8l1-1.8l0.1-0.6l-2.3-1.6l-2.6-0.7l-1.7,1.7l-1.1-0.1l-1.1-1.6l-1.7-6.4l-4-2.8l-1-1.7l-4.3-3.7
		l-2.4-7.8l0.6-5l1.4-0.8l-0.6-3.3l3.9-2.2l0.6-3.3l2-2.7l-0.3-2.7l-2.2-2.4l0.8-3.5l5.3-1.2l4.6-2.8l0.5-3.3l1.6-1.5l0.6-3.5
		l-0.5-2.5l-3.6-2.4l-0.6-2.1l-3.1-2.2l40.8-2.5l0,0.2c0,0,0.2,1.8,0.5,3.3l0.2,0.9c0.2,1.2,0.4,2.6,0.6,3.4
		c0.7,2.9,3.8,6.1,3.8,6.1c0.1,0.1,0.5,0.4,0.6,0.8l3.7,46.6l-1.4,1.5l0.7,1.9l-1.1,2l2.3,3l-0.2,1.7l0.9,2.4l-2,3.9l0.4,1.2
		l-1.7,0.9l-1.2,3.5l-1.4-0.1l-0.7,1.4l1,1.7l-1.3,1l0.9,0.3l-1.2,0.8l0.4,2.9l-1.1,0.3l1.2,0.9l-0.9,0.4l0.7,0.2l-1.4,3l1.4,3.5
		l-6.1,2.3l-0.3,2.2l1.6,2.6l-1.6,1.9l-7.4-2.7l-2.6,3.1l1,2.1L542.8,305.5z"/>
	<path class="st3" d="M555.5,195.2c0.1,0.5,0.3,1.9,0.5,3.2l0.2,0.9c0.2,1.3,0.5,2.6,0.6,3.4c0.8,3,3.9,6.2,3.9,6.3l0,0l0,0
		c0.1,0.1,0.4,0.3,0.4,0.5l3.7,46.4l-1.2,1.2l-0.3,0.3l0.2,0.4l0.6,1.5l-0.9,1.6l-0.2,0.4l0.3,0.4l2,2.7l-0.2,1.4l0,0.2l0.1,0.2
		l0.8,2.2l-1.9,3.6l-0.1,0.3l0.1,0.3l0.3,0.8l-1.3,0.7l-0.3,0.1l-0.1,0.3l-1.1,3.1l-0.9-0.1l-0.5,0l-0.2,0.5l-0.5,1l-0.2,0.4
		l0.2,0.3l0.7,1.3l-0.5,0.4l-1.2,0.9l0.8,0.2l-0.3,0.2L559,283l0.1,0.5l0.3,2.3l0,0l-1.5,0.4l1.2,0.9l0.1,0.1l-1.3,0.6l1.3,0.3
		l-1.2,2.5l-0.1,0.3l0.1,0.3l1.2,3l-5.6,2.1l-0.4,0.2l-0.1,0.4l-0.2,1.8l0,0.3l0.1,0.2l1.4,2.2l-1.2,1.5l-6.9-2.5l-0.5-0.2l-0.3,0.4
		l-2.3,2.7l-0.3,0.4l0.2,0.4l0.6,1.2l-0.4-0.1l-1-1.5l-3.6-5.5l0.3-0.7l0.1-0.3l-0.2-0.3l-1.4-2.7l-0.1-2.2l0-0.3l-0.3-0.2l-6.3-4.9
		l-0.2-0.1l-0.2,0l-1.6-0.3l-5-4.5l-0.3-2.4l2.5-5.5l0.1-0.2l0-0.2l-0.2-1.5l0.9-1.6l0.1-0.1l0-0.1l0-0.3l0.1-0.5l-0.4-0.3l-2.1-1.4
		l-0.1-0.1l-0.1,0l-2.3-0.6l-0.4-0.1L521,267l-1.4,1.4l-0.8-0.1l-1-1.4l-1.7-6.2l-0.1-0.3l-0.2-0.2l-3.8-2.6l-0.9-1.5L511,256
		l-0.1-0.1l-4.2-3.6l-2.4-7.6l0.5-4.7l1-0.6l0.5-0.3l-0.1-0.5l-0.5-2.8l3.5-2l0.3-0.2l0.1-0.3l0.6-3.1l1.8-2.6l0.2-0.2l0-0.3
		l-0.2-2.4l0-0.2l-0.2-0.2l-2-2.2l0.7-3.1l5-1.2l0.1,0l0.1-0.1l4.4-2.7l0.3-0.2l0.1-0.3l0.5-3l1.4-1.4l0.2-0.2l0-0.2l0.6-3.3l0-0.1
		l0-0.1l-0.5-2.2l-0.1-0.3l-0.2-0.2l-3.3-2.3l-0.5-1.8l-0.1-0.3l-0.2-0.1l-2.1-1.5L555.5,195.2 M538.4,298.5l2.4,5.9l0.1,0.2
		l-0.8-0.4l-1.4-3.5l-0.1-0.3l-0.3-0.1l-0.5-0.2L538.4,298.5 M556.1,194.4l-42.3,2.6l3.9,2.7l0.6,2.1l3.5,2.4l0.5,2.2l-0.6,3.3
		l-1.6,1.5l-0.5,3.2l-4.4,2.7l-5.5,1.3l-0.9,3.9l2.3,2.5l0.2,2.4l-1.9,2.7l-0.6,3.2l-4,2.2l0.6,3.3l-1.3,0.8l-0.6,5.3l2.5,7.9
		l4.4,3.7l1,1.7l3.9,2.7l1.7,6.4l1.3,1.9l1.5,0.1l1.7-1.7l2.3,0.6l2.1,1.4l0,0.3l-1,1.9l0.3,1.8l-2.6,5.7l0.4,2.9l5.4,4.9l1.8,0.3
		l6.3,4.9l0.1,2.3l1.5,2.8l-1.2,3.1l1.1,0.5l1.5,3.8l2.9,1.6l-0.9-2.1l1.2,1.8l0,0l2.2,0.5l-1.2-2.6l2.3-2.7l7.4,2.7l1.9-2.3
		l-1.7-2.7l0.2-1.8l6.3-2.3l-1.4-3.7l1.6-3.3l-0.2,0l0.5-0.3l-1-0.8l0.7-0.2l-0.4-3l1.6-1.1l-0.9-0.3l1-0.8l-1.1-1.8l0.5-1l1.4,0.1
		l1.3-3.6l1.8-1l-0.5-1.4l2-3.9l-0.9-2.5l0.2-1.7l-2.2-2.9l1-1.9l-0.7-1.9l1.4-1.5l-3.8-46.8l0-0.1c-0.2-0.5-0.7-0.9-0.7-0.9
		c0,0-3-3.1-3.8-5.9c-0.2-0.7-0.4-2-0.6-3.3l-0.2-0.9c-0.3-1.5-0.5-3.3-0.5-3.3L556.1,194.4L556.1,194.4z"/>
</g>
<path class="st0" d="M568.8,209.4c-0.8,0.4-2,0.8-2,0.8s-1.7,0.4-2.7,0.1c-1-0.2-2.5-1-2.5-1l3.7,46.8l-1.4,1.5l0.7,1.9l-1.1,2
	l2.3,3l-0.2,1.7l0.9,2.4l-2,3.9l0.4,1.2l-1.7,0.9l-1.2,3.5l-1.4-0.1l-0.7,1.4l1,1.7l-1.3,1l0.9,0.2l-1.1,0.8l0.4,2.9l-1.1,0.3
	l1.2,0.9l-0.9,0.4l0.8,0.2l0-0.1l1.4,0.5l0.8-0.9l-0.6-1.7l0.7-0.5l1.4,1l1.8-0.8l0.6,1.5l0.9-0.7l-0.2-2.3l0.5,1.2l2.4-0.7l4.7,2.7
	l1.3-2.6l2.9-1.8l1.4,1.7l1.5-0.2l0.4,1.1l0.6-1.5l1.1-0.5l-0.2-2l1.2-0.8l-0.5-1.2l2-0.2L585,278l1.4,1l0.3,1.6l3.7,1.6l1.8-1.7
	l0-2.8l0.9-2.1l2.3-0.6l0.8-3.1l2.7-2.1l-0.8-3.7l2.5-0.6l1.6,1l2.8-2.1l2.7-0.4l0.2-2l-1.4-0.3l0.6-1.5l-1.1-1.5l1.1-1l-5.7-52.8
	l-30.3,2.6C571.2,207.6,569.4,209,568.8,209.4L568.8,209.4z"/>
</svg>
